<?xml version="1.0" encoding="UTF-8" standalone="no"?>
<svg
   width="24"
   height="24"
   viewBox="0 0 24 24"
   version="1.1"
   id="svg6"
   sodipodi:docname="securityScan.svg"
   inkscape:version="1.2.1 (9c6d41e4, 2022-07-14)"
   xmlns:inkscape="http://www.inkscape.org/namespaces/inkscape"
   xmlns:sodipodi="http://sodipodi.sourceforge.net/DTD/sodipodi-0.dtd"
   xmlns="http://www.w3.org/2000/svg"
   xmlns:svg="http://www.w3.org/2000/svg">
  <defs
     id="defs10">
    <filter
       style="color-interpolation-filters:sRGB;"
       inkscape:label="Invert"
       id="filter4835"
       x="0"
       y="0"
       width="1"
       height="1">
      <feColorMatrix
         values="1 0 0 0 0 0 1 0 0 0 0 0 1 0 0 -0.21 -0.72 -0.07 2 0 "
         result="fbSourceGraphic"
         id="feColorMatrix4833" />
      <feColorMatrix
         result="fbSourceGraphicAlpha"
         in="fbSourceGraphic"
         values="0 0 0 -1 0 0 0 0 -1 0 0 0 0 -1 0 0 0 0 1 0"
         id="feColorMatrix4841" />
      <feColorMatrix
         id="feColorMatrix4843"
         values="-1 0 0 0 1 0 -1 0 0 1 0 0 -1 0 1 0.21 0.72 0.07 1 0 "
         result="color2"
         in="fbSourceGraphic" />
    </filter>
    <filter
       style="color-interpolation-filters:sRGB;"
       inkscape:label="Invert"
       id="filter4839"
       x="0"
       y="0"
       width="1"
       height="1">
      <feColorMatrix
         values="1 0 0 0 0 0 1 0 0 0 0 0 1 0 0 -0.21 -0.72 -0.07 2 0 "
         result="fbSourceGraphic"
         id="feColorMatrix4837" />
      <feColorMatrix
         result="fbSourceGraphicAlpha"
         in="fbSourceGraphic"
         values="0 0 0 -1 0 0 0 0 -1 0 0 0 0 -1 0 0 0 0 1 0"
         id="feColorMatrix4845" />
      <feColorMatrix
         id="feColorMatrix4847"
         values="-1 0 0 0 1 0 -1 0 0 1 0 0 -1 0 1 0.21 0.72 0.07 1 0 "
         result="color2"
         in="fbSourceGraphic" />
    </filter>
  </defs>
  <sodipodi:namedview
     id="namedview8"
     pagecolor="#ffffff"
     bordercolor="#000000"
     borderopacity="0.25"
     inkscape:showpageshadow="2"
     inkscape:pageopacity="0.0"
     inkscape:pagecheckerboard="0"
     inkscape:deskcolor="#d1d1d1"
     showgrid="false"
     inkscape:zoom="9.8333333"
     inkscape:cx="-4.1694915"
     inkscape:cy="12"
     inkscape:window-width="1309"
     inkscape:window-height="456"
     inkscape:window-x="0"
     inkscape:window-y="25"
     inkscape:window-maximized="0"
     inkscape:current-layer="svg6" />
  <path
     d="m 9.03,8.03 -2.47,2.47 2.47,2.47 a 0.75,0.75 0 0 1 -1.06,1.06 l -3,-3 a 0.75,0.75 0 0 1 0,-1.06 l 3,-3 a 0.75,0.75 0 0 1 1.06,1.06 z m 2.94,-1.06 a 0.75,0.75 0 0 1 1.06,0 l 3,3 a 0.75,0.75 0 0 1 0,1.06 l -3,3 A 0.75,0.75 0 1 1 11.97,12.97 L 14.44,10.5 11.97,8.03 a 0.75,0.75 0 0 1 0,-1.06 z"
     id="path2"
     style="filter:url(#filter4839)" />
  <path
     fill-rule="evenodd"
     d="m 1.5,10.5 a 9,9 0 0 0 18,0 9,9 0 1 0 -18,0 z M 10.5,0 C 16.299,0 21,4.701 21,10.5 a 10.459,10.459 0 0 1 -2.564,6.875 l 4.344,4.345 a 0.75,0.75 0 1 1 -1.06,1.06 L 17.375,18.436 C 15.533,20.033 13.13,21 10.5,21 4.701,21 0,16.299 0,10.5 0,4.701 4.701,0 10.5,0 Z"
     id="path4"
     style="filter:url(#filter4835)" />
</svg>
